# xmcd
#
# Track frame offsets:
#	150
#	20185
#	37536
#	57804
#	72548
#	90935
#	113611
#	129483
#	145446
#	165027
#	187341
#	204278
#	219013
#	239766
#	258935
#	280014
#	296816
#
# Disc length: 4169 seconds
# Revision: 0
# Processed by: cddbd v1.5.2PL0 Copyright (c) Steve Scherf et al.
# Submitted via: dBpowerAMP V12.0
#
DISCID=f1104711
DTITLE=Юрий Шкитун - Пацанам
DYEAR=2004
DGENRE=Chanson
TTITLE0=Телега
TTITLE1=Бумажный хлеб
TTITLE2=Не ругай меня
TTITLE3=Памяти друга
TTITLE4=Сколько нас
TTITLE5=Рябина красная
TTITLE6=Неволя
TTITLE7=В стае волков
TTITLE8=Воля-волюшка
TTITLE9=Новая русская
TTITLE10=Клинок
TTITLE11=Застольная
TTITLE12=Волк
TTITLE13=Сотка
TTITLE14=Мишень
TTITLE15=Гастролеры
TTITLE16=Сам на сам
EXTD=
EXTT0=
EXTT1=
EXTT2=
EXTT3=
EXTT4=
EXTT5=
EXTT6=
EXTT7=
EXTT8=
EXTT9=
EXTT10=
EXTT11=
EXTT12=
EXTT13=
EXTT14=
EXTT15=
EXTT16=
PLAYORDER=
